Coordinates
version=1
nRows=26
nColumns=24
inDegrees=yes

Units are S.I. units (second, meters, Newtons, ...)
Angles are in degrees.

endheader
time	pelvis_tilt	pelvis_list	pelvis_rotation	pelvis_tx	pelvis_ty	pelvis_tz	hip_flexion_r	hip_adduction_r	hip_rotation_r	knee_angle_r	ankle_angle_r	subtalar_angle_r	mtp_angle_r	hip_flexion_l	hip_adduction_l	hip_rotation_l	knee_angle_l	ankle_angle_l	subtalar_angle_l	mtp_angle_l	lumbar_extension	lumbar_bending	lumbar_rotation
      0.55800000	      0.27628156	      7.61521242	      0.36204440	     -0.79396294	      0.99215318	      0.23048271	     24.25379147	     -6.57024675	     -0.38429467	     -1.47474936	      7.19185756	     -8.82226335	      0.04922111	    -18.99860300	     10.59487126	      7.65200433	     -6.23606162	      8.51050950	    -14.39877351	      0.28494229	     -2.78846731	     -9.73530672	     -3.65900043
      0.56216667	      0.24674447	      7.55282700	      0.43424625	     -0.78772554	      0.99157452	      0.23083323	     24.30263935	     -6.48682644	     -0.18474854	     -1.94152006	      7.32185641	     -8.89879317	      0.06602173	    -19.04912679	     10.48235523	      7.67318950	     -6.81354425	      8.53917793	    -14.23263761	      0.33302528	     -2.71102393	     -9.63622695	     -3.67769443
      0.56633333	      0.22308788	      7.46413114	      0.51123583	     -0.78143411	      0.99104935	      0.23119800	     24.31596505	     -6.37363562	      0.03830406	     -2.40436738	      7.29103925	     -9.10754139	      0.10265743	    -19.05369528	     10.33141385	      7.52326574	     -7.49143217	      8.58463248	    -13.82460434	      0.44640980	     -2.63210022	     -9.50931270	     -3.79863457
      0.57050000	      0.21403675	      7.36661337	      0.57246331	     -0.77508293	      0.99056157	      0.23158512	     24.31127450	     -6.24285161	      0.29998916	     -2.91522184	      7.30673663	     -9.33201927	      0.13748099	    -19.08618232	     10.18247444	      7.45898264	     -8.14623866	      8.60255850	    -13.57878722	      0.54525005	     -2.56466249	     -9.36225109	     -3.87987210
      0.57466667	      0.18951960	      7.25646398	      0.64017292	     -0.76868131	      0.99009114	      0.23198112	     24.30840411	     -6.09677486	      0.54866423	     -3.43750352	      7.19166255	     -9.62268394	      0.18734607	    -19.05732858	     10.01338574	      7.28563319	     -8.88660365	      8.60756571	    -13.19430265	      0.68921318	     -2.46342873	     -9.19810519	     -3.98543555
      0.57883333	      0.23714683	      7.12046416	      0.70834650	     -0.76224586	      0.98976242	      0.23238620	     24.20091219	     -5.92542565	      0.76456971	     -3.94234076	      6.99243487	     -9.90234543	      0.37620428	    -19.07738302	      9.80600923	      7.03287623	     -9.67492987	      8.60553140	    -12.68264233	      1.22257909	     -2.46064288	     -9.00912567	     -4.01044027
      0.58300000	      0.18292101	      7.01301610	      0.77064407	     -0.75577113	      0.98929596	      0.23281591	     24.24849643	     -5.77372629	      0.97143853	     -4.56470317	      6.81725005	    -10.16383055	      1.63155705	    -18.97319527	      9.63967399	      6.82638643	    -10.48548874	      8.47381018	    -12.33542532	      4.93698850	     -2.31505069	     -8.85844563	     -3.97781863
      0.58716667	      0.17056951	      6.87507229	      0.82942618	     -0.74924569	      0.98893945	      0.23324790	     24.20202373	     -5.58745607	      1.23315428	     -5.11646266	      6.51975620	    -10.52389417	      1.62975351	    -18.90926251	      9.44683023	      6.65887976	    -11.30597382	      8.34281513	    -12.07739490	      4.99853081	     -2.21682291	     -8.66726064	     -4.21375700
      0.59133333	      0.14945249	      6.73124655	      0.88192943	     -0.74268607	      0.98859522	      0.23370056	     24.17820242	     -5.39101307	      1.44268340	     -5.71435659	      6.21140822	    -10.84811198	      1.64237000	    -18.79000612	      9.24244901	      6.39397152	    -12.21240880	      8.21500506	    -11.66432087	      5.10433496	     -2.09108742	     -8.45753812	     -4.25192541
      0.59550000	      0.13767025	      6.58057699	      0.93954869	     -0.73611397	      0.98830533	      0.23417825	     24.13605397	     -5.18677484	      1.64444974	     -6.31348144	      5.86987682	    -11.15543649	      1.66779811	    -18.65530848	      9.02328647	      6.11646165	    -13.15545099	      8.04608685	    -11.23162903	      5.25818224	     -2.00306564	     -8.26568154	     -4.30187683
      0.59966667	      0.14696417	      6.43534450	      0.99208713	     -0.72955485	      0.98806134	      0.23467874	     24.07150156	     -4.98573194	      1.83565313	     -6.91929497	      5.51228011	    -11.48709872	      1.71417966	    -18.48997433	      8.80350484	      5.77093191	    -14.19647337	      7.86648124	    -10.74137330	      5.50984729	     -1.92309074	     -8.07450746	     -4.33175683
      0.60383333	      0.13980152	      6.27732701	      1.02573585	     -0.72296126	      0.98781938	      0.23520095	     24.04318762	     -4.76427014	      2.00387289	     -7.57065374	      5.12480503	    -11.80348667	      1.78112423	    -18.29882586	      8.57545641	      5.42430800	    -15.24106149	      7.62853948	    -10.26887926	      5.87262980	     -1.82135544	     -7.85998432	     -4.35512524
      0.60800000	      0.13695126	      6.11481970	      1.06063185	     -0.71636660	      0.98762114	      0.23573402	     24.01043584	     -4.53987845	      2.15003762	     -8.23208320	      4.73211831	    -12.07644003	      1.86157224	    -18.07277320	      8.33653413	      5.05098732	    -16.34800516	      7.33961137	     -9.80035878	      6.32729728	     -1.72174235	     -7.63787595	     -4.37160892
      0.61216667	      0.12801812	      5.94873044	      1.08942651	     -0.70977405	      0.98743755	      0.23629153	     23.98757376	     -4.31020482	      2.27536495	     -8.90245415	      4.34278943	    -12.31271772	      1.94004317	    -17.80157796	      8.08885734	      4.64416247	    -17.52106731	      6.98488584	     -9.33924044	      6.81673153	     -1.61114999	     -7.41534686	     -4.37361221
      0.61633333	      0.15567667	      5.78021697	      1.10578507	     -0.70318780	      0.98734376	      0.23688129	     23.91665122	     -4.07505813	      2.40602197	     -9.55362830	      3.93810822	    -12.56064908	      3.05101846	    -17.54539179	      7.82977847	      4.20364929	    -18.70130774	      6.42654650	     -9.02973115	     14.58679238	     -1.54408475	     -7.19622416	     -4.36819160
      0.62050000	      0.13697710	      5.60722952	      1.12478812	     -0.69660939	      0.98720209	      0.23746378	     23.92246998	     -3.84160948	      2.46097988	    -10.26790760	      3.61153461	    -12.63333791	      3.03379593	    -17.19537705	      7.56597201	      3.77137467	    -19.97635133	      5.95412649	     -8.59116980	     14.64566253	     -1.41675021	     -6.96726918	     -4.35453163
      0.62466667	      0.13447758	      5.44196009	      1.12820609	     -0.69007597	      0.98711056	      0.23808998	     23.92210886	     -3.60837179	      2.53850268	    -11.00212326	      3.29042828	    -12.77078631	      3.01613022	    -16.82590660	      7.30366755	      3.31495710	    -21.29910299	      5.43818473	     -8.13787164	     14.76343872	     -1.31816352	     -6.74536693	     -4.32829775
      0.62883333	      0.15262584	      5.26825095	      1.12326883	     -0.68358510	      0.98705656	      0.23874514	     23.91317300	     -3.36529952	      2.59145907	    -11.76529596	      2.99722186	    -12.89861430	      2.99443079	    -16.44274003	      7.02126910	      2.83159307	    -22.67433136	      4.88888500	     -7.66487580	     14.95841139	     -1.25057113	     -6.51459314	     -4.28840867
      0.63300000	      0.19319023	      5.08024602	      1.13574309	     -0.67711623	      0.98709123	      0.23940629	     23.85170642	     -3.11393032	      2.63586997	    -12.47995380	      2.75048679	    -13.04866897	      2.94000571	    -16.04030675	      6.70405986	      2.35043779	    -24.10890685	      4.25845062	     -7.17476493	     15.50300052	     -1.21150950	     -6.27049358	     -4.23090599
      0.63716667	      0.17137061	      4.93410207	      1.10168324	     -0.67070453	      0.98701898	      0.24009933	     23.90725355	     -2.89493533	      2.68566326	    -13.27339921	      2.54235093	    -13.01515150	      2.91666555	    -15.54863328	      6.45284184	      1.87830434	    -25.56979758	      3.54682230	     -6.89714261	     15.72247767	     -1.08902596	     -6.08523220	     -4.19895715
      0.64133333	      0.18118325	      4.75741639	      1.09201364	     -0.66433229	      0.98705353	      0.24082033	     23.89866738	     -2.64624848	      2.73574299	    -14.02018150	      2.30217174	    -13.16573952	      2.23657633	    -15.05144989	      6.13622176	      1.39250194	    -27.06794405	      2.74872759	     -6.57186649	     21.52371640	     -1.02508408	     -5.85846475	     -4.13271012
      0.64550000	      0.22052280	      4.59452225	      1.05393467	     -0.65801738	      0.98711118	      0.24153779	     23.88313023	     -2.41471801	      2.73745185	    -14.81053842	      2.26331530	    -13.04458586	      2.23899321	    -14.56139006	      5.84217680	      0.91547497	    -28.60755874	      1.97289249	     -6.27600064	     21.55264463	     -0.98818300	     -5.64183898	     -4.08785470
      0.64966667	      0.23163740	      4.43459783	      1.02830826	     -0.65176567	      0.98716769	      0.24226453	     23.89020367	     -2.18730689	      2.74103080	    -15.58440458	      2.19014363	    -13.02006020	      2.23055584	    -14.00195237	      5.54111109	      0.46931530	    -30.19848922	      1.16648668	     -6.00043471	     21.60197515	     -0.93085546	     -5.43519512	     -4.02445300
      0.65383333	      0.25876290	      4.27230684	      0.99786942	     -0.64557360	      0.98725941	      0.24301064	     23.87157791	     -1.95561194	      2.74463969	    -16.33836512	      2.14914994	    -12.99547242	      2.21312007	    -13.43577037	      5.22923099	      0.03242006	    -31.81404774	      0.33590036	     -5.75986538	     21.66485353	     -0.90203946	     -5.22956252	     -3.95520055
      0.65800000	      0.27925092	      4.11500282	      0.96568426	     -0.63944240	      0.98736839	      0.24374806	     23.85688693	     -1.73088182	      2.73761581	    -17.08367819	      2.13852790	    -12.97209928	      2.18373863	    -12.83510296	      4.92082349	     -0.37747086	    -33.45544798	     -0.51351886	     -5.57322936	     21.73673404	     -0.86837483	     -5.01855088	     -3.88208881
      0.66216667	      0.29661600	      3.95589529	      0.93576543	     -0.63335812	      0.98750773	      0.24450639	     23.82070331	     -1.50256657	      2.73942339	    -17.77775633	      2.16554557	    -12.92794016	      2.14968492	    -12.20742717	      4.60611181	     -0.75779050	    -35.11546450	     -1.39763539	     -5.46827730	     21.79422928	     -0.83742833	     -4.83217385	     -3.81421303
